<svg xmlns="http://www.w3.org/2000/svg" viewBox="-5 -4 92 92" role="img" aria-label="JSBlogs">
  <style>
    .arc { fill: #202a63; }
    .dot { fill: #a7bf9c; }
    @media (prefers-color-scheme: dark) {
      .arc { fill: #75c88c; }
      .dot { fill: #f29e5a; }
    }
  </style>
  <!-- C-arc (open book cover) — same path as the header logo -->
  <path class="arc" d="M42 0 C 18.8 0 0 18.8 0 42 C 0 65.2 18.8 84 42 84 C 55.6 84 67.8 77.8 75.8 68.2 L 67.1 63.8 C 61 70.2 52 74.2 42 74.2 C 24.2 74.2 9.8 59.8 9.8 42 C 9.8 24.2 24.2 9.8 42 9.8 C 50.4 9.8 58 13 63.6 18.2 L 72 10 C 64 3.8 53.6 0 42 0 Z"/>
  <!-- 3 enlarged dots (readable at 16–32 px) -->
  <circle class="dot" cx="66" cy="22" r="8"/>
  <circle class="dot" cx="72" cy="42" r="8"/>
  <circle class="dot" cx="66" cy="62" r="8"/>
</svg>
